<svg xmlns="http://www.w3.org/2000/svg" width="1280" height="760" viewBox="0 0 1280 760" role="img" aria-label="AttackPath AI dashboard preview">
<rect width="1280" height="760" rx="18" fill="#ffffff"/>
<style>
text { font-family: -apple-system, BlinkMacSystemFont, "Segoe UI", sans-serif; fill: #172033; }
.title { font-size: 18px; font-weight: 700; } .subtitle { font-size: 12px; fill: #657086; }
.label { font-size: 11px; } .value { font-size: 14px; font-weight: 700; } .mono { font-family: ui-monospace, SFMono-Regular, Menlo, monospace; }
</style><rect width="1280" height="760" fill="#f7f8fb"/><text x="38" y="48" style="font-size:28px;font-weight:800">AttackPath AI</text><text x="38" y="73" class="subtitle">Identity and agentic-attack detection lab · deterministic synthetic evidence</text><rect x="1036" y="29" width="204" height="38" rx="19" fill="#ffedd5"/><text x="1138" y="54" text-anchor="middle" style="font-size:12px;font-weight:700;fill:#dc2626">SIMULATION ONLY</text><rect x="38.0" y="100" width="229.6" height="112" rx="14" fill="#ffffff" stroke="#dfe4ec"/><text x="54.0" y="128" class="label">Synthetic events</text><text x="54.0" y="164" style="font-size:25px;font-weight:800">936</text><text x="54.0" y="190" class="subtitle">identity + cloud + agent</text><rect x="281.6" y="100" width="229.6" height="112" rx="14" fill="#ffffff" stroke="#dfe4ec"/><text x="297.6" y="128" class="label">Alerts</text><text x="297.6" y="164" style="font-size:25px;font-weight:800">200</text><text x="297.6" y="190" class="subtitle">threshold 0.52</text><rect x="525.2" y="100" width="229.6" height="112" rx="14" fill="#ffffff" stroke="#dfe4ec"/><text x="541.2" y="128" class="label">Held-out recall</text><text x="541.2" y="164" style="font-size:25px;font-weight:800">90.2%</text><text x="541.2" y="190" class="subtitle">simulated attacks found</text><rect x="768.8" y="100" width="229.6" height="112" rx="14" fill="#ffffff" stroke="#dfe4ec"/><text x="784.8" y="128" class="label">Mean time to detect</text><text x="784.8" y="164" style="font-size:25px;font-weight:800">4.0 min</text><text x="784.8" y="190" class="subtitle">from chain start</text><rect x="1012.4" y="100" width="229.6" height="112" rx="14" fill="#ffffff" stroke="#dfe4ec"/><text x="1028.4" y="128" class="label">Paths stopped early</text><text x="1028.4" y="164" style="font-size:25px;font-weight:800">100.0%</text><text x="1028.4" y="190" class="subtitle">before exfiltration</text><rect x="38" y="236" width="742" height="475" rx="16" fill="#ffffff" stroke="#dfe4ec"/><text x="62" y="271" class="title">Risk distribution</text><rect x="78" y="340.0" width="42" height="300.0" rx="5" fill="#3157a4"/><text x="99" y="666" text-anchor="middle" class="label">0.0</text><text x="99" y="328.0" text-anchor="middle" class="label">720</text><rect x="143" y="639.2" width="42" height="0.8" rx="5" fill="#3157a4"/><text x="164" y="666" text-anchor="middle" class="label">0.1</text><text x="164" y="627.2" text-anchor="middle" class="label">2</text><rect x="208" y="636.7" width="42" height="3.3" rx="5" fill="#3157a4"/><text x="229" y="666" text-anchor="middle" class="label">0.2</text><text x="229" y="624.7" text-anchor="middle" class="label">8</text><rect x="273" y="639.6" width="42" height="0.4" rx="5" fill="#3157a4"/><text x="294" y="666" text-anchor="middle" class="label">0.3</text><text x="294" y="627.6" text-anchor="middle" class="label">1</text><rect x="338" y="639.2" width="42" height="0.8" rx="5" fill="#3157a4"/><text x="359" y="666" text-anchor="middle" class="label">0.4</text><text x="359" y="627.2" text-anchor="middle" class="label">2</text><rect x="403" y="628.8" width="42" height="11.2" rx="5" fill="#3157a4"/><text x="424" y="666" text-anchor="middle" class="label">0.5</text><text x="424" y="616.8" text-anchor="middle" class="label">27</text><rect x="468" y="627.9" width="42" height="12.1" rx="5" fill="#f97316"/><text x="489" y="666" text-anchor="middle" class="label">0.6</text><text x="489" y="615.9" text-anchor="middle" class="label">29</text><rect x="533" y="613.3" width="42" height="26.7" rx="5" fill="#f97316"/><text x="554" y="666" text-anchor="middle" class="label">0.7</text><text x="554" y="601.3" text-anchor="middle" class="label">64</text><rect x="598" y="624.6" width="42" height="15.4" rx="5" fill="#dc2626"/><text x="619" y="666" text-anchor="middle" class="label">0.8</text><text x="619" y="612.6" text-anchor="middle" class="label">37</text><rect x="663" y="620.8" width="42" height="19.2" rx="5" fill="#dc2626"/><text x="684" y="666" text-anchor="middle" class="label">0.9</text><text x="684" y="608.8" text-anchor="middle" class="label">46</text><text x="408" y="692" text-anchor="middle" class="subtitle">Hybrid risk-score bin</text><rect x="804" y="236" width="438" height="475" rx="16" fill="#ffffff" stroke="#dfe4ec"/><text x="828" y="271" class="title">Prioritized incident queue</text><text x="828" y="293" class="subtitle">Highest-risk events with an explainable response</text><rect x="828" y="324" width="390" height="48" rx="10" fill="#fee2e2"/><circle cx="848" cy="348" r="7" fill="#dc2626"/><text x="866" y="343" class="value">Exfiltration</text><text x="866" y="361" class="subtitle">user-005 · customer-data</text><text x="1196" y="353" text-anchor="end" class="mono value">1.00</text><rect x="828" y="384" width="390" height="48" rx="10" fill="#fee2e2"/><circle cx="848" cy="408" r="7" fill="#dc2626"/><text x="866" y="403" class="value">Exfiltration</text><text x="866" y="421" class="subtitle">user-002 · customer-data</text><text x="1196" y="413" text-anchor="end" class="mono value">1.00</text><rect x="828" y="444" width="390" height="48" rx="10" fill="#fee2e2"/><circle cx="848" cy="468" r="7" fill="#dc2626"/><text x="866" y="463" class="value">Exfiltration</text><text x="866" y="481" class="subtitle">user-008 · customer-data</text><text x="1196" y="473" text-anchor="end" class="mono value">1.00</text><rect x="828" y="504" width="390" height="48" rx="10" fill="#fee2e2"/><circle cx="848" cy="528" r="7" fill="#dc2626"/><text x="866" y="523" class="value">Exfiltration</text><text x="866" y="541" class="subtitle">user-004 · external-storage</text><text x="1196" y="533" text-anchor="end" class="mono value">1.00</text><rect x="828" y="564" width="390" height="48" rx="10" fill="#fee2e2"/><circle cx="848" cy="588" r="7" fill="#dc2626"/><text x="866" y="583" class="value">Exfiltration</text><text x="866" y="601" class="subtitle">user-014 · customer-data</text><text x="1196" y="593" text-anchor="end" class="mono value">1.00</text><rect x="828" y="624" width="390" height="48" rx="10" fill="#fee2e2"/><circle cx="848" cy="648" r="7" fill="#dc2626"/><text x="866" y="643" class="value">Exfiltration</text><text x="866" y="661" class="subtitle">user-032 · customer-data</text><text x="1196" y="653" text-anchor="end" class="mono value">1.00</text></svg>